<svg width="684" height="406" viewBox="0 0 684 406" fill="none" xmlns="http://www.w3.org/2000/svg" style="width: 100%; height: 100%;">
<g clip-path="url(#clip0_35_1380)">
<path d="M644.515 105.473C643.348 105.548 642.292 106.336 641.312 107.094C636.093 111.131 634.167 113.061 628.957 117.111C634.022 112.855 636.023 111.101 638.103 109.235C641.734 105.977 646.486 101.886 644.139 99.49C643.035 98.628 641.425 99.572 640.249 100.504C634.726 104.879 633.224 106.481 629.818 110.043C631.784 107.867 632.833 106.438 636.311 103.034C637.191 102.173 638.107 101.254 638.5 100.063C638.892 98.872 638.527 97.346 637.448 97.013C636.394 96.688 635.298 97.579 634.427 98.406C628.651 103.889 625.422 106.738 620.471 111.368C624.793 106.878 625.861 103.533 625.034 102.488C623.635 100.72 620.772 102.981 619.508 104.257C614.053 109.767 609.15 114.64 604.07 119.717C585.738 133.286 560.56 159.815 541.492 170.71C535.096 164.699 527.409 157.332 520.02 151.724C511.05 163.293 502.962 173.574 493.101 183.761C500.383 191.043 513.223 203.114 521.25 207.78C523.07 208.838 540.661 225.562 586.083 176.067C598.992 162 613.723 144.287 621.82 136.768C621.814 136.761 635.182 125.586 643.697 118.806C644.839 117.897 646.139 116.447 645.575 115.145C644.964 113.736 642.967 114.24 641.602 114.976C637.006 117.455 636.557 117.862 632.451 121.255C638.041 116.498 639.683 114.3 645.273 109.543C645.876 109.03 646.525 108.44 646.674 107.646C646.908 106.397 645.684 105.399 644.517 105.473H644.515Z" fill="white" stroke="#010101" stroke-width="1.5" stroke-linecap="round" stroke-linejoin="round"></path>
<path d="M618.561 127.474C619.742 125.486 620.033 123.056 619.707 120.768C619.381 118.479 618.475 116.31 617.395 114.265L620.47 111.368" fill="white"></path>
<path d="M618.561 127.474C619.742 125.486 620.033 123.056 619.707 120.768C619.381 118.479 618.475 116.31 617.395 114.265L620.47 111.368" stroke="#010101" stroke-width="1.5" stroke-linecap="round" stroke-linejoin="round"></path>
<path d="M403.633 53.82C405.527 46.916 411.47 41.557 418.25 39.261C425.031 36.966 432.516 37.449 439.395 39.429C446.487 41.471 453.738 45.808 455.512 52.499C458.039 49.793 461.467 47.709 465.169 47.646C469.918 47.565 474.245 50.892 476.496 55.074C478.747 59.256 479.244 64.157 479.212 68.907C479.1 85.467 463.04 108.901 465.03 124.772C453.144 125.911 447.806 101.011 448.041 93.609C444.118 97.13 440.654 98.422 434.981 98.784C432.507 97.592 431.394 97.185 430.257 94.685C426.545 86.521 423.345 78.014 418.079 70.755C413.963 65.081 408.685 60.317 403.633 53.82Z" fill="#010101" stroke="#010101" stroke-width="1.5" stroke-linecap="round" stroke-linejoin="round"></path>
<path d="M303.528 157.408C320.934 138.067 339.879 117.771 365.12 111.45C372.489 109.605 379.836 108.513 387.517 108.562C410.672 108.711 431.304 110.603 457.297 112.107C468.413 112.564 476.611 112.607 488.834 119.356C500.215 125.641 520.886 147.494 529.739 158.157C518.804 170.128 509.091 180.847 498.031 193.439C492.152 186.978 483.423 181.129 471.777 168.33C465.171 199.199 456.672 229.662 446.105 259.624C435.085 263.375 423.474 266.022 411.866 265.156C400.257 264.29 388.588 259.568 381.14 250.622C367.707 234.488 370.61 208.987 356.818 193.159C344.725 179.281 322.521 176.239 303.53 157.407L303.528 157.408Z" fill="#57205f" stroke="#010101" stroke-width="1.5" stroke-linecap="round" stroke-linejoin="round"></path>
<path d="M538.015 91.189L549.439 0.75H682.717L671.293 91.189H538.015Z" fill="#E3E3FF" stroke="#010101" stroke-width="1.5" stroke-linecap="round" stroke-linejoin="round"></path>
<path d="M560.293 10.87C559.248 20.307 558.006 29.721 556.568 39.106C567.06 39.339 577.552 39.572 588.044 39.805C589.056 29.917 590.632 20.087 592.76 10.377C583.059 10.015 573.327 10.482 560.293 10.87Z" fill="white" stroke="#010101" stroke-width="1.5" stroke-linecap="round" stroke-linejoin="round"></path>
<path d="M564.733 24.167C567.004 27.309 569.275 30.451 571.546 33.593C581.651 25.861 591.9 18.317 602.286 10.967" stroke="#010101" stroke-width="1.5" stroke-linecap="round" stroke-linejoin="round"></path>
<path d="M555.53 51.805C554.485 61.242 553.243 70.656 551.805 80.041C562.297 80.274 572.789 80.507 583.281 80.74C584.293 70.852 585.869 61.022 587.997 51.312C578.296 50.95 568.564 51.417 555.53 51.805Z" fill="white" stroke="#010101" stroke-width="1.5" stroke-linecap="round" stroke-linejoin="round"></path>
<path d="M559.97 65.103C562.241 68.245 564.512 71.387 566.783 74.529C576.888 66.797 587.137 59.253 597.523 51.903" stroke="#010101" stroke-width="1.5" stroke-linecap="round" stroke-linejoin="round"></path>
<path d="M611.622 19.379L668.805 17.754" stroke="#010101" stroke-width="1.5" stroke-linecap="round" stroke-linejoin="round"></path>
<path d="M609.451 29.008C618.77 29.285 628.102 29.123 637.405 28.522" stroke="#010101" stroke-width="1.5" stroke-linecap="round" stroke-linejoin="round"></path>
<path d="M610.076 57.245C627.526 56.771 644.976 56.296 662.427 55.822" stroke="#010101" stroke-width="1.5" stroke-linecap="round" stroke-linejoin="round"></path>
<path d="M609.607 66.909C619.964 66.735 630.321 66.561 640.678 66.387" stroke="#010101" stroke-width="1.5" stroke-linecap="round" stroke-linejoin="round"></path>
<path d="M458.63 112.202C458.63 112.202 456.773 130.412 455.286 141.585C446.001 140.184 428.833 142.636 421.46 156.869C410.978 148.283 398.748 138.803 385.568 138.957C386.466 126.915 386.557 121.432 387.517 108.562C393.992 108.562 400.674 108.883 407.807 108.997C407.868 104.582 408.824 101.161 409.53 96.739C405.154 96.887 400.999 93.535 399.157 89.429C397.315 85.323 397.354 80.63 397.813 76.152C398.635 68.123 400.704 60.222 404.273 52.531C408.713 52 413.006 50.28 416.094 48.116C416.675 53.678 417.597 59.3 420.028 64.337C422.459 69.374 426.589 73.812 432.218 75.258C432.477 73.498 433.744 71.97 435.343 71.189C436.942 70.408 438.827 70.327 440.556 70.747C441.242 70.914 441.921 71.162 442.482 71.59C443.07 72.039 443.501 72.666 443.824 73.331C445.27 76.308 444.452 80.214 441.932 82.36C440.687 83.42 439.136 84.046 437.586 84.566C436.599 84.897 435.447 85.176 434.293 84.372C432.799 89.051 432.456 95.36 438.139 98.348C437.888 102.942 437.216 110.676 437.216 110.676L458.632 112.201L458.63 112.202Z" fill="white" stroke="#010101" stroke-width="1.5" stroke-linecap="round" stroke-linejoin="round"></path>
<path d="M406.996 66.497C405.801 69.256 404.606 72.015 403.41 74.775C403.323 74.977 403.233 75.194 403.275 75.41C403.344 75.763 403.722 75.953 404.059 76.078C405.248 76.517 406.5 76.786 407.765 76.875" stroke="#010101" stroke-width="1.5" stroke-linecap="round" stroke-linejoin="round"></path>
<path d="M455.653 52.522C465.341 74.799 452.182 90.535 448.04 93.609Z" fill="#010101"></path>
<path d="M455.653 52.522C465.341 74.799 452.182 90.535 448.04 93.609" stroke="#010101" stroke-width="1.5" stroke-linecap="round" stroke-linejoin="round"></path>
<path d="M409.434 97.132C413.092 97.276 416.78 96.599 420.148 95.165" stroke="#010101" stroke-width="1.5" stroke-linecap="round" stroke-linejoin="round"></path>
<path d="M343.277 377.672C342 384.254 339.21 390.538 335.184 395.901C334.265 397.125 333.26 398.345 332.85 399.819C332.44 401.293 332.816 403.119 334.146 403.877C334.794 404.246 335.566 404.313 336.31 404.366C347.458 405.159 358.7 404.617 369.72 402.757C370.963 402.547 372.425 402.136 372.805 400.934C373.159 399.814 372.352 398.699 371.679 397.736C369.581 394.737 368.382 391.116 368.274 387.457C368.213 385.379 368.495 383.295 368.328 381.222C368.16 379.149 367.458 376.994 365.835 375.693C364.631 374.728 363.069 374.346 361.547 374.092C354.95 372.993 348.037 373.863 343.277 377.671V377.672Z" fill="white" stroke="#010101" stroke-width="1.5" stroke-linecap="round" stroke-linejoin="round"></path>
<path d="M388.811 333.376C427.687 335.007 466.663 332.615 505.269 327.76C510.612 327.088 516.094 326.322 520.799 323.701C525.828 320.899 529.523 316.219 532.7 311.418C537.518 304.138 541.598 295.443 539.666 286.929C537.413 276.999 527.722 270.578 518.161 267.075C509.969 264.074 501.346 262.44 492.726 261.092C460.52 256.055 427.853 254.854 395.639 253.079C391 280.69 388.464 308.653 388.811 333.375V333.376Z" fill="#2c7034" stroke="#010101" stroke-width="1.5" stroke-linecap="round" stroke-linejoin="round"></path>
<path d="M399.229 272.308C428.766 272.961 458.301 273.728 487.833 274.609" stroke="#010101" stroke-width="1.5" stroke-linecap="round" stroke-linejoin="round"></path>
<path d="M369.867 158.184C378.268 157.659 385.418 165.026 389.851 172.181C394.284 179.337 396.353 187.679 398.027 195.928C409.125 250.626 394.518 325.174 391.201 380.681C358.294 380.681 334.982 381.578 313.423 379.498C320.147 336.726 325.802 270.792 333.406 222.427C336.625 201.948 348.552 159.514 369.868 158.183L369.867 158.184Z" fill="#2c7034" stroke="#010101" stroke-width="1.5" stroke-linecap="round" stroke-linejoin="round"></path>
<path d="M276.12 51.921C277.844 50.663 279.755 49.661 281.771 48.959C282.282 48.781 282.856 48.625 283.349 48.845C283.761 49.029 284.022 49.436 284.246 49.828C285.121 51.352 285.823 52.975 286.333 54.657C286.428 54.968 286.516 55.3 286.436 55.615C286.352 55.949 286.094 56.207 285.841 56.442C284.551 57.64 283.118 58.683 281.583 59.544C281.223 59.746 280.844 59.942 280.433 59.975C279.828 60.023 279.259 59.715 278.731 59.417C277.392 58.661 275.983 57.837 275.255 56.483C274.526 55.129 274.719 52.942 276.119 51.921H276.12Z" fill="#010101" stroke="#010101" stroke-miterlimit="10"></path>
<path d="M239.093 29.683C239.105 32.975 239.116 36.266 239.128 39.558C241.12 39.486 243.112 39.414 245.104 39.342C244.933 36.146 244.762 32.949 244.592 29.753C247.221 29.664 249.846 29.474 252.461 29.184C252.234 27.393 252.264 25.57 252.55 23.787C245.565 23.707 239.611 23.811 231.686 24.537C231.932 26.2 231.883 28.45 232.129 30.113C234.126 29.763 236.462 29.962 239.094 29.682L239.093 29.683Z" fill="#2c7034" stroke="#010101" stroke-width="1.5" stroke-linecap="round" stroke-linejoin="round"></path>
<path d="M217.072 43.552C210.873 48.105 206.259 54.597 203.121 61.619C199.552 69.606 197.87 78.701 199.985 87.189C202.269 96.354 208.872 104.099 216.977 108.95C225.082 113.801 234.583 115.953 244.017 116.425C250.198 116.734 256.553 116.32 262.249 113.899C268.452 111.263 273.52 106.358 277.121 100.661C282.029 92.898 284.363 83.491 283.398 74.357C282.432 65.223 278.646 56.455 271.319 48.258C263.24 39.22 233.505 31.482 217.072 43.552Z" fill="#2c7034" stroke="#010101" stroke-width="1.5" stroke-linecap="round" stroke-linejoin="round"></path>
<path d="M220.888 48.802C215.664 52.639 211.776 58.11 209.131 64.028C206.123 70.759 204.706 78.423 206.488 85.577C208.413 93.301 213.978 99.828 220.808 103.915C227.638 108.003 235.645 109.816 243.595 110.214C248.804 110.475 254.16 110.125 258.959 108.085C264.186 105.863 268.457 101.73 271.492 96.929C275.628 90.387 277.595 82.459 276.781 74.762C275.967 67.065 272.776 59.675 266.601 52.768C259.792 45.152 234.734 38.63 220.885 48.802H220.888Z" fill="white" stroke="#010101" stroke-width="1.5" stroke-linecap="round" stroke-linejoin="round"></path>
<path d="M240.298 77.312C239.034 77.709 238.405 79.383 239.017 80.558C239.629 81.733 241.262 82.2 242.448 81.609C243.625 81.023 244.237 79.455 243.676 78.266C243.115 77.077 241.567 76.913 240.298 77.312Z" fill="#010101" stroke="#010101" stroke-width="1.5" stroke-linecap="round" stroke-linejoin="round"></path>
<path d="M240.525 50.271C240.193 60.218 240.314 70.181 240.644 80.49C249.158 76.803 257.673 73.116 266.187 69.429" stroke="#010101" stroke-width="1.5" stroke-linecap="round" stroke-linejoin="round"></path>
<path d="M69.1289 119.441C72.6819 120.253 76.2349 121.065 79.7879 121.877" stroke="#010101" stroke-width="1.5" stroke-linecap="round" stroke-linejoin="round"></path>
<path d="M371.931 34.222C370.565 36.68 369.199 39.139 367.834 41.597" stroke="#010101" stroke-width="1.5" stroke-linecap="round" stroke-linejoin="round"></path>
<path d="M621.819 184.231C623.586 186.531 625.352 188.831 627.119 191.131" stroke="#010101" stroke-width="1.5" stroke-linecap="round" stroke-linejoin="round"></path>
<path d="M390.522 154.384L81.4129 154.142L79.3369 177.512L387.278 177.131L390.522 154.384Z" fill="#010101" stroke="#010101" stroke-width="1.5" stroke-linecap="round" stroke-linejoin="round"></path>
<path d="M79.3369 177.512L62.2799 369.474L359.759 370.12L387.278 177.131L79.3369 177.512Z" fill="white" stroke="#010101" stroke-width="1.5" stroke-linecap="round" stroke-linejoin="round"></path>
<path d="M184.288 194.69L160.64 350.008" stroke="#010101" stroke-width="1.5" stroke-linecap="round" stroke-linejoin="round"></path>
<path d="M282.99 195.06L259.316 350.008" stroke="#010101" stroke-width="1.5" stroke-linecap="round" stroke-linejoin="round"></path>
<path d="M122.983 203.409C113.577 205.753 104.226 208.321 94.942 211.11C94.592 219.774 95.606 228.491 97.936 236.843C109.039 235.511 119.999 233.002 130.575 229.369C129.225 224.917 128.627 220.275 127.516 215.757C126.405 211.239 124.7 206.724 122.983 203.409Z" fill="white" stroke="#010101" stroke-width="1.5" stroke-linecap="round" stroke-linejoin="round"></path>
<path d="M149.399 249.131C138.533 246.918 125.126 243.911 124.365 244.53C123.927 244.886 120.578 258.962 118.908 268.294C124.621 270.311 137.711 273.047 138.366 272.968C140.659 272.689 144.272 269.255 148.03 266.705C148.937 259.552 150.247 252.482 149.399 249.132V249.131Z" fill="#2c7034" stroke="#010101" stroke-width="1.5" stroke-linecap="round" stroke-linejoin="round"></path>
<path d="M220.507 207.934C218.298 207.77 216.142 208.564 214.078 209.37C207.112 212.089 200.251 215.08 193.518 218.334C195.325 226.143 198.452 233.574 201.564 240.96C201.684 241.246 201.817 241.547 202.072 241.723C202.506 242.022 203.095 241.844 203.588 241.655C212.755 238.146 221.816 234.361 230.755 230.308C227.512 222.478 223.263 215.066 220.506 207.934H220.507Z" fill="#57205f" stroke="#010101" stroke-width="1.5" stroke-linecap="round" stroke-linejoin="round"></path>
<path d="M247.961 260.701C237.169 259.787 214.314 260.756 212.135 260.139C211.021 268.262 210.839 282.86 210.532 291.58C219.222 291.58 234.912 291.229 247.05 292.298C246.424 286.158 248.106 264.633 247.962 260.701H247.961Z" fill="white" stroke="#010101" stroke-width="1.5" stroke-linecap="round" stroke-linejoin="round"></path>
<path d="M203.302 298.228C198.156 296.565 192.808 295.526 187.413 295.141C186.619 299.465 185.448 303.72 183.918 307.841C189.325 309.264 194.732 310.688 200.14 312.111C200.443 307.727 201.988 303.537 203.302 298.228Z" fill="#2c7034" stroke="#010101" stroke-width="1.5" stroke-linecap="round" stroke-linejoin="round"></path>
<path d="M339.002 214.285C328.375 218.228 317.748 222.171 307.121 226.113C309.596 235.031 312.214 243.909 314.973 252.744C323.6 250.573 330.143 248.266 338.406 244.968C338.94 244.755 339.492 244.53 339.888 244.112C340.255 243.725 340.45 243.21 340.637 242.71C341.503 240.386 342.369 238.061 343.235 235.737C343.755 234.342 344.282 232.897 344.194 231.411C344.132 230.364 341.351 221.07 339.004 214.285H339.002Z" fill="#2c7034" stroke="#010101" stroke-width="1.5" stroke-linecap="round" stroke-linejoin="round"></path>
<path d="M320.739 272.309C306.647 270.901 293.336 270.651 285.784 270.374C284.614 280.498 283.624 290.642 282.817 300.801C293.531 301.9 304.306 302.36 308.452 302.36C311.563 302.36 319.991 295.374 320.238 293.003C320.95 286.159 321.661 279.315 320.74 272.308L320.739 272.309Z" fill="#57205f" stroke="#010101" stroke-width="1.5" stroke-linecap="round" stroke-linejoin="round"></path>
<path d="M320.131 292.78C316.378 292.916 313.122 292.467 309.367 292.432C308.885 295.795 308.914 299.01 308.985 302.302" stroke="#010101" stroke-width="1.5" stroke-linecap="round" stroke-linejoin="round"></path>
<path d="M344.192 231.412C341.566 232.57 338.192 233.628 335.566 234.786C335.436 234.843 335.547 234.958 335.477 235.082C335.39 235.235 337.584 241.143 339.387 244.502" stroke="#010101" stroke-width="1.5" stroke-linecap="round" stroke-linejoin="round"></path>
<path d="M217.26 268.294C225.93 268.575 234.608 268.599 243.28 268.368" stroke="#010101" stroke-width="1.5" stroke-linecap="round" stroke-linejoin="round"></path>
<path d="M215.857 275.538C224.939 275.494 234.022 275.693 243.093 276.135" stroke="#010101" stroke-width="1.5" stroke-linecap="round" stroke-linejoin="round"></path>
<path d="M216.173 283.128C221.091 283.607 226.031 283.859 230.972 283.884" stroke="#010101" stroke-width="1.5" stroke-linecap="round" stroke-linejoin="round"></path>
<path d="M148.233 266.47C145.752 265.534 143.271 264.599 140.79 263.663C139.892 266.52 139.084 269.406 138.367 272.313" stroke="#010101" stroke-width="1.5" stroke-linecap="round" stroke-linejoin="round"></path>
<path d="M110.037 215.524C111.165 215.524 112.08 214.609 112.08 213.481C112.08 212.353 111.165 211.438 110.037 211.438C108.909 211.438 107.994 212.353 107.994 213.481C107.994 214.609 108.909 215.524 110.037 215.524Z" fill="#010101"></path>
<path d="M134.29 255.123C135.418 255.123 136.333 254.208 136.333 253.08C136.333 251.952 135.418 251.037 134.29 251.037C133.162 251.037 132.247 251.952 132.247 253.08C132.247 254.208 133.162 255.123 134.29 255.123Z" fill="#010101"></path>
<path d="M208.489 220.127C209.617 220.127 210.532 219.212 210.532 218.084C210.532 216.956 209.617 216.041 208.489 216.041C207.361 216.041 206.446 216.956 206.446 218.084C206.446 219.212 207.361 220.127 208.489 220.127Z" fill="#010101"></path>
<path d="M325.662 228.984C326.79 228.984 327.705 228.069 327.705 226.941C327.705 225.813 326.79 224.898 325.662 224.898C324.534 224.898 323.619 225.813 323.619 226.941C323.619 228.069 324.534 228.984 325.662 228.984Z" fill="#010101"></path>
<path d="M301.997 278.571C303.125 278.571 304.04 277.656 304.04 276.528C304.04 275.4 303.125 274.485 301.997 274.485C300.869 274.485 299.954 275.4 299.954 276.528C299.954 277.656 300.869 278.571 301.997 278.571Z" fill="#010101"></path>
<path d="M219.774 147.3C218.061 147.409 216.23 147.561 214.884 148.626C214.061 149.277 213.508 150.208 213.07 151.161C211.803 153.92 211.367 157.054 211.832 160.054C211.999 161.133 212.693 162.472 213.757 162.229C214.229 162.121 214.565 161.715 214.852 161.325C216.879 158.567 218.292 155.361 218.959 152.004C218.024 155.264 217.235 158.566 216.595 161.897C216.431 162.752 216.353 163.813 217.065 164.314C217.39 164.543 217.812 164.588 218.209 164.558C220.678 164.371 222.204 161.745 222.74 159.327C223.276 156.909 223.316 154.267 224.728 152.234C223.263 156.415 222.325 160.781 221.944 165.194C221.916 165.517 221.894 165.855 222.023 166.153C222.4 167.018 223.705 166.907 224.49 166.384C225.886 165.455 226.62 163.826 227.232 162.266C228.436 159.2 229.441 156.056 230.242 152.86C229.223 155.864 228.256 159.971 227.854 163.118C227.788 163.636 227.74 164.203 228.022 164.642C228.446 165.303 229.458 165.347 230.127 164.937C230.796 164.527 231.2 163.803 231.553 163.101C232.717 160.788 233.908 157.363 234.609 154.871C234.743 154.394 234.902 153.869 235.326 153.613C235.639 153.424 236.028 153.428 236.394 153.432C237.63 153.446 240.407 154.14 241.524 153.612C242.641 153.084 243.567 151.976 243.528 150.74C243.484 149.336 242.21 148.215 240.848 147.871C239.486 147.527 225.385 146.943 219.772 147.3H219.774Z" fill="white" stroke="#010101" stroke-width="1.5" stroke-linecap="round" stroke-linejoin="round"></path>
<path d="M54.806 294.636C49.671 290.873 42.779 287.581 37.205 290.657C33.34 292.79 31.475 297.493 31.508 301.907C31.541 306.321 33.139 310.554 34.716 314.677C41.611 332.703 48.506 350.729 54.694 369.507C76.756 369.507 92.763 370.12 104.444 370.12C104.721 366.768 76.448 310.496 54.806 294.636Z" fill="#55D087" stroke="#010101" stroke-width="1.5" stroke-linecap="round" stroke-linejoin="round"></path>
<path d="M58.731 369.357C49.68 350.994 40.509 332.442 27.455 316.672C23.496 311.889 18.915 307.206 12.977 305.393C9.99496 304.483 6.47496 304.452 4.05796 306.422C1.72896 308.321 1.00896 311.557 0.820957 314.556C0.376957 321.63 2.05596 328.645 3.72296 335.534C6.46196 346.854 9.20096 358.174 12.352 369.953C27.632 369.669 42.913 369.385 58.731 369.358V369.357Z" fill="#55D087" stroke="#010101" stroke-width="1.5" stroke-linecap="round" stroke-linejoin="round"></path>
<path d="M9.4519 305.071C18.6689 326.618 27.1709 346.892 35.4509 368.815" stroke="#010101" stroke-width="1.5" stroke-linecap="round" stroke-linejoin="round"></path>
<path d="M42.459 289.584C55.591 315.682 67.341 342.475 77.642 369.815" stroke="#010101" stroke-width="1.5" stroke-linecap="round" stroke-linejoin="round"></path>
<path d="M23.3449 338.597C16.5179 335.611 9.63691 332.747 2.70691 330.007Z" fill="#55D087"></path>
<path d="M23.3449 338.597C16.5179 335.611 9.63691 332.747 2.70691 330.007" stroke="#010101" stroke-width="1.5" stroke-linecap="round" stroke-linejoin="round"></path>
<path d="M42.342 338.734C39.235 345.362 35.778 351.826 31.991 358.09Z" fill="#55D087"></path>
<path d="M42.342 338.734C39.235 345.362 35.778 351.826 31.991 358.09" stroke="#010101" stroke-width="1.5" stroke-linecap="round" stroke-linejoin="round"></path>
<path d="M59.4779 325.532C51.4469 321.888 42.0749 317.386 34.2209 313.375Z" fill="#55D087"></path>
<path d="M59.4779 325.532C51.4469 321.888 42.0749 317.386 34.2209 313.375" stroke="#010101" stroke-width="1.5" stroke-linecap="round" stroke-linejoin="round"></path>
<path d="M77.4649 320.732C74.5479 328.29 70.9669 337.967 68.0499 345.525Z" fill="#55D087"></path>
<path d="M77.4649 320.732C74.5479 328.29 70.9669 337.967 68.0499 345.525" stroke="#010101" stroke-width="1.5" stroke-linecap="round" stroke-linejoin="round"></path>
<path d="M84.83 332.069L72.757 358.091" stroke="#010101" stroke-width="1.5" stroke-linecap="round" stroke-linejoin="round"></path>
<path d="M135.065 42.857C134.192 43.131 133.758 44.286 134.181 45.097C134.604 45.908 135.73 46.23 136.549 45.822C137.361 45.417 137.784 44.336 137.396 43.515C137.008 42.694 135.94 42.582 135.065 42.857Z" fill="#010101" stroke="#010101" stroke-width="1.5" stroke-linecap="round" stroke-linejoin="round"></path>
<path d="M583.265 266.546C582.001 266.943 581.372 268.617 581.984 269.792C582.596 270.967 584.229 271.434 585.415 270.843C586.592 270.257 587.204 268.689 586.643 267.5C586.082 266.311 584.534 266.147 583.265 266.546Z" fill="#010101" stroke="#010101" stroke-width="1.5" stroke-linecap="round" stroke-linejoin="round"></path>
</g>
<defs>
<clipPath id="clip0_35_1380">
<rect width="683.467" height="405.469" fill="white"></rect>
</clipPath>
</defs>
</svg>